<svg xmlns="http://www.w3.org/2000/svg" width="207.665" height="244.646" viewBox="0 0 207.665 244.646">
  <g id="sideLines" transform="translate(107.046 -2637.896)">
    <path id="Rectangle_152" data-name="Rectangle 152" d="M0,0H13a0,0,0,0,1,0,0V209.5A6.5,6.5,0,0,1,6.5,216h0A6.5,6.5,0,0,1,0,209.5V0A0,0,0,0,1,0,0Z" transform="translate(-67.633 2648.816) rotate(-47)" fill="none" stroke="#acc9e6" stroke-miterlimit="10" stroke-width="2"/>
    <path id="Rectangle_154" data-name="Rectangle 154" d="M0,0H13a0,0,0,0,1,0,0V209.5A6.5,6.5,0,0,1,6.5,216h0A6.5,6.5,0,0,1,0,209.5V0A0,0,0,0,1,0,0Z" transform="translate(-67.633 2733.816) rotate(-47)" fill="none" stroke="#acc9e6" stroke-miterlimit="10" stroke-width="2"/>
    <path id="Rectangle_153" data-name="Rectangle 153" d="M0,0H13a0,0,0,0,1,0,0V209.5A6.5,6.5,0,0,1,6.5,216h0A6.5,6.5,0,0,1,0,209.5V0A0,0,0,0,1,0,0Z" transform="translate(-105.633 2655.816) rotate(-47)" fill="none" stroke="#acc9e6" stroke-miterlimit="10" stroke-width="2"/>
  </g>
</svg>
