<svg xmlns="http://www.w3.org/2000/svg" width="116.11" height="115.779" viewBox="0 0 116.11 115.779">
  <g id="triangleDecor" transform="translate(-297.278 337.093) rotate(172)">
    <path id="Path_303" data-name="Path 303" d="M-398.352,170.854l-41.988,42.022v-6.7l37.762-37.762Z" transform="translate(0 13.52)" fill="#acc9e6"/>
    <path id="Path_304" data-name="Path 304" d="M-414.845,168.084l-25.495,25.5v-6.7l21.234-21.235Z" transform="translate(0 6.772)" fill="#acc9e6"/>
    <path id="Path_305" data-name="Path 305" d="M-431.372,165.338l-8.968,8.968v-6.7l4.742-4.742Z" transform="translate(0 0)" fill="#acc9e6"/>
    <path id="Path_306" data-name="Path 306" d="M-381.825,173.668l-58.515,58.515v-6.734l54.254-54.255Z" transform="translate(0 20.292)" fill="#acc9e6"/>
    <path id="Path_307" data-name="Path 307" d="M-371.182,179.184l-44.187,44.187-15.771,9.071,55.7-55.7Z" transform="translate(22.411 33.812)" fill="#acc9e6"/>
    <path id="Path_308" data-name="Path 308" d="M-365.3,176.414l-75.042,75.043v-6.7l70.816-70.781Z" transform="translate(0 27.064)" fill="#acc9e6"/>
    <path id="Path_309" data-name="Path 309" d="M-398.734,181.757l-14.466,8.35,10.583-10.583Z" transform="translate(66.113 40.584)" fill="#acc9e6"/>
  </g>
</svg>
