<svg xmlns="http://www.w3.org/2000/svg" width="138.866" height="71.338" viewBox="0 0 138.866 71.338">
  <g id="xGrid" transform="translate(-249.174 -920.424)">
    <rect id="Rectangle_159" data-name="Rectangle 159" width="12.281" height="1.959" transform="translate(249.174 959.742) rotate(-45)" fill="#acc9e6"/>
    <rect id="Rectangle_160" data-name="Rectangle 160" width="1.959" height="12.281" transform="matrix(0.707, -0.707, 0.707, 0.707, 249.174, 952.443)" fill="#acc9e6"/>
    <rect id="Rectangle_161" data-name="Rectangle 161" width="12.281" height="1.959" transform="translate(281.373 959.742) rotate(-44.999)" fill="#acc9e6"/>
    <rect id="Rectangle_162" data-name="Rectangle 162" width="1.959" height="12.281" transform="matrix(0.707, -0.707, 0.707, 0.707, 281.373, 952.443)" fill="#acc9e6"/>
    <rect id="Rectangle_163" data-name="Rectangle 163" width="12.281" height="1.959" transform="translate(313.572 959.743) rotate(-45)" fill="#acc9e6"/>
    <rect id="Rectangle_164" data-name="Rectangle 164" width="1.959" height="12.281" transform="translate(313.572 952.443) rotate(-45)" fill="#acc9e6"/>
    <rect id="Rectangle_165" data-name="Rectangle 165" width="12.281" height="1.959" transform="translate(345.772 959.742) rotate(-45)" fill="#acc9e6"/>
    <rect id="Rectangle_166" data-name="Rectangle 166" width="1.959" height="12.281" transform="matrix(0.707, -0.707, 0.707, 0.707, 345.772, 952.443)" fill="#acc9e6"/>
    <rect id="Rectangle_167" data-name="Rectangle 167" width="12.281" height="1.959" transform="translate(377.971 959.742) rotate(-44.999)" fill="#acc9e6"/>
    <rect id="Rectangle_168" data-name="Rectangle 168" width="1.959" height="12.281" transform="matrix(0.707, -0.707, 0.707, 0.707, 377.971, 952.443)" fill="#acc9e6"/>
    <rect id="Rectangle_169" data-name="Rectangle 169" width="12.281" height="1.959" transform="translate(249.174 990.377) rotate(-45)" fill="#acc9e6"/>
    <rect id="Rectangle_170" data-name="Rectangle 170" width="1.959" height="12.281" transform="matrix(0.707, -0.707, 0.707, 0.707, 249.174, 983.078)" fill="#acc9e6"/>
    <rect id="Rectangle_171" data-name="Rectangle 171" width="12.281" height="1.959" transform="translate(281.373 990.377) rotate(-44.999)" fill="#acc9e6"/>
    <rect id="Rectangle_172" data-name="Rectangle 172" width="1.959" height="12.281" transform="matrix(0.707, -0.707, 0.707, 0.707, 281.373, 983.078)" fill="#acc9e6"/>
    <rect id="xGrid-2" data-name="xGrid" width="12.281" height="1.959" transform="translate(313.572 990.377) rotate(-45)" fill="#acc9e6"/>
    <rect id="Rectangle_174" data-name="Rectangle 174" width="1.959" height="12.281" transform="translate(313.572 983.078) rotate(-45)" fill="#acc9e6"/>
    <rect id="Rectangle_175" data-name="Rectangle 175" width="12.281" height="1.959" transform="translate(345.772 990.377) rotate(-45)" fill="#acc9e6"/>
    <rect id="Rectangle_176" data-name="Rectangle 176" width="1.959" height="12.281" transform="matrix(0.707, -0.707, 0.707, 0.707, 345.772, 983.078)" fill="#acc9e6"/>
    <rect id="Rectangle_177" data-name="Rectangle 177" width="12.281" height="1.959" transform="translate(377.971 990.377) rotate(-44.999)" fill="#acc9e6"/>
    <rect id="Rectangle_178" data-name="Rectangle 178" width="1.959" height="12.281" transform="matrix(0.707, -0.707, 0.707, 0.707, 377.971, 983.078)" fill="#acc9e6"/>
    <rect id="Rectangle_179" data-name="Rectangle 179" width="12.281" height="1.959" transform="translate(249.174 929.108) rotate(-45)" fill="#acc9e6"/>
    <rect id="Rectangle_180" data-name="Rectangle 180" width="1.959" height="12.281" transform="matrix(0.707, -0.707, 0.707, 0.707, 249.174, 921.809)" fill="#acc9e6"/>
    <rect id="Rectangle_181" data-name="Rectangle 181" width="12.281" height="1.959" transform="translate(281.373 929.108) rotate(-44.999)" fill="#acc9e6"/>
    <rect id="Rectangle_182" data-name="Rectangle 182" width="1.959" height="12.281" transform="matrix(0.707, -0.707, 0.707, 0.707, 281.373, 921.809)" fill="#acc9e6"/>
    <rect id="Rectangle_183" data-name="Rectangle 183" width="12.281" height="1.959" transform="translate(313.572 929.108) rotate(-45)" fill="#acc9e6"/>
    <rect id="Rectangle_184" data-name="Rectangle 184" width="1.959" height="12.281" transform="translate(313.572 921.809) rotate(-45)" fill="#acc9e6"/>
    <rect id="Rectangle_185" data-name="Rectangle 185" width="12.281" height="1.959" transform="translate(345.772 929.108) rotate(-45)" fill="#acc9e6"/>
    <rect id="Rectangle_186" data-name="Rectangle 186" width="1.959" height="12.281" transform="matrix(0.707, -0.707, 0.707, 0.707, 345.772, 921.809)" fill="#acc9e6"/>
    <rect id="Rectangle_187" data-name="Rectangle 187" width="12.281" height="1.959" transform="translate(377.971 929.108) rotate(-44.999)" fill="#acc9e6"/>
    <rect id="Rectangle_188" data-name="Rectangle 188" width="1.959" height="12.281" transform="matrix(0.707, -0.707, 0.707, 0.707, 377.971, 921.809)" fill="#acc9e6"/>
  </g>
</svg>
