<svg xmlns="http://www.w3.org/2000/svg" width="148.847" height="37.474" viewBox="0 0 148.847 37.474">
  <g id="AppStoreLogo" transform="translate(3.085 -12.62)">
    <g id="_Group_" data-name="&lt;Group&gt;" transform="translate(-3.085 13.043)">
      <g id="_Group_2" data-name="&lt;Group&gt;">
        <g id="_Group_3" data-name="&lt;Group&gt;">
          <path id="_Path_" data-name="&lt;Path&gt;" d="M32.1,23.437a7.4,7.4,0,0,1,3.525-6.21A7.577,7.577,0,0,0,29.659,14c-2.512-.264-4.947,1.5-6.226,1.5-1.3,0-3.275-1.477-5.4-1.433a7.95,7.95,0,0,0-6.69,4.08c-2.893,5.008-.735,12.369,2.036,16.417,1.386,1.982,3.007,4.2,5.127,4.118,2.075-.086,2.849-1.323,5.354-1.323,2.481,0,3.208,1.323,5.371,1.273,2.226-.036,3.629-1.991,4.967-3.992a16.4,16.4,0,0,0,2.271-4.626A7.153,7.153,0,0,1,32.1,23.437Z" transform="translate(-9.972 -6.116)"/>
          <path id="_Path_2" data-name="&lt;Path&gt;" d="M23.647,13.941A7.288,7.288,0,0,0,25.314,8.72a7.415,7.415,0,0,0-4.8,2.482,6.935,6.935,0,0,0-1.711,5.028A6.131,6.131,0,0,0,23.647,13.941Z" transform="translate(-5.6 -8.72)"/>
        </g>
      </g>
      <g id="Group_146" data-name="Group 146" transform="translate(36.579 13.687)">
        <path id="Path_399" data-name="Path 399" d="M46.206,31.632h-7.08l-1.7,5.02h-3l6.706-18.574h3.116l6.706,18.574H47.9Zm-6.347-2.317h5.612L42.7,21.167h-.077Z" transform="translate(-34.427 -17.768)"/>
        <path id="Path_400" data-name="Path 400" d="M59.387,28.262c0,4.208-2.252,6.912-5.651,6.912A4.591,4.591,0,0,1,49.475,32.8h-.064v6.707h-2.78V21.49h2.691v2.252h.051a4.8,4.8,0,0,1,4.312-2.394C57.122,21.348,59.387,24.065,59.387,28.262Zm-2.857,0c0-2.742-1.417-4.544-3.579-4.544-2.124,0-3.552,1.84-3.552,4.544,0,2.729,1.429,4.556,3.552,4.556C55.113,32.818,56.53,31.028,56.53,28.262Z" transform="translate(-28.378 -16.148)"/>
        <path id="Path_401" data-name="Path 401" d="M69.352,28.262c0,4.208-2.252,6.912-5.651,6.912A4.591,4.591,0,0,1,59.44,32.8h-.064v6.707H56.6V21.49h2.69v2.252h.051a4.8,4.8,0,0,1,4.312-2.394C67.087,21.348,69.352,24.065,69.352,28.262Zm-2.857,0c0-2.742-1.417-4.544-3.579-4.544-2.124,0-3.552,1.84-3.552,4.544,0,2.729,1.429,4.556,3.552,4.556,2.162,0,3.579-1.789,3.579-4.556Z" transform="translate(-23.438 -16.148)"/>
        <path id="Path_402" data-name="Path 402" d="M72.653,31.579c.206,1.842,2,3.051,4.44,3.051,2.343,0,4.028-1.209,4.028-2.87,0-1.442-1.017-2.3-3.424-2.9l-2.407-.58c-3.411-.824-4.994-2.419-4.994-5.007,0-3.2,2.793-5.406,6.758-5.406,3.925,0,6.615,2.2,6.706,5.406H80.956c-.168-1.854-1.7-2.972-3.939-2.972s-3.771,1.132-3.771,2.78c0,1.313.979,2.086,3.373,2.677l2.046.5c3.811.9,5.394,2.432,5.394,5.149,0,3.475-2.768,5.651-7.17,5.651-4.119,0-6.9-2.125-7.08-5.485Z" transform="translate(-16.889 -17.871)"/>
        <path id="Path_403" data-name="Path 403" d="M84.924,19.3v3.2H87.5v2.2H84.924v7.465c0,1.16.516,1.7,1.648,1.7a8.682,8.682,0,0,0,.914-.064V36a7.633,7.633,0,0,1-1.544.129c-2.742,0-3.811-1.03-3.811-3.656V24.706H80.163V22.5h1.969V19.3Z" transform="translate(-11.756 -17.163)"/>
        <path id="Path_404" data-name="Path 404" d="M86.065,28.269c0-4.261,2.509-6.938,6.423-6.938s6.424,2.677,6.424,6.938-2.485,6.938-6.424,6.938S86.065,32.542,86.065,28.269Zm10.014,0c0-2.923-1.339-4.648-3.592-4.648S88.9,25.36,88.9,28.269c0,2.934,1.338,4.646,3.59,4.646s3.592-1.712,3.592-4.646Z" transform="translate(-8.83 -16.156)"/>
        <path id="Path_405" data-name="Path 405" d="M96.186,21.49h2.651v2.3H98.9a3.23,3.23,0,0,1,3.257-2.447,4.287,4.287,0,0,1,.952.1v2.6a3.886,3.886,0,0,0-1.249-.168A2.8,2.8,0,0,0,98.966,27v8.032h-2.78Z" transform="translate(-3.813 -16.148)"/>
        <path id="Path_406" data-name="Path 406" d="M113.433,31.062c-.374,2.458-2.768,4.145-5.831,4.145-3.939,0-6.384-2.639-6.384-6.874s2.458-7,6.268-7c3.747,0,6.1,2.574,6.1,6.68v.952h-9.564v.168a3.527,3.527,0,0,0,3.643,3.836,3.064,3.064,0,0,0,3.127-1.9Zm-9.4-4.042h6.77a3.257,3.257,0,0,0-3.321-3.437,3.428,3.428,0,0,0-3.449,3.437Z" transform="translate(-1.319 -16.156)"/>
      </g>
    </g>
    <g id="Group_148" data-name="Group 148" transform="translate(35.353 12.62)">
      <path id="Path_407" data-name="Path 407" d="M38.895,8.734a3.948,3.948,0,0,1,4.2,4.435c0,2.851-1.541,4.49-4.2,4.49H35.671V8.734ZM37.057,16.4H38.74a2.806,2.806,0,0,0,2.943-3.21A2.813,2.813,0,0,0,38.74,10H37.057Z" transform="translate(-35.671 -8.295)"/>
      <path id="Path_408" data-name="Path 408" d="M41.686,13.6a3.191,3.191,0,1,1,6.352,0,3.191,3.191,0,1,1-6.352,0Zm4.985,0c0-1.46-.656-2.314-1.807-2.314s-1.805.854-1.805,2.314.65,2.319,1.805,2.319,1.807-.853,1.807-2.319Z" transform="translate(-32.697 -7.609)"/>
      <path id="Path_409" data-name="Path 409" d="M54.054,16.93H52.675l-1.392-4.96h-.105l-1.386,4.96H48.426l-1.856-6.735h1.348l1.207,5.139h.1l1.385-5.139h1.275l1.385,5.139h.105l1.2-5.139H55.9Z" transform="translate(-30.268 -7.566)"/>
      <path id="Path_410" data-name="Path 410" d="M53.854,10.24h1.28v1.07h.1a2.016,2.016,0,0,1,2.01-1.2,2.191,2.191,0,0,1,2.331,2.505v4.36H58.244V12.949c0-1.082-.47-1.621-1.453-1.621a1.545,1.545,0,0,0-1.608,1.707v3.94H53.854Z" transform="translate(-26.658 -7.611)"/>
      <path id="Path_411" data-name="Path 411" d="M59.094,8.437h1.329V17.8H59.094Z" transform="translate(-24.06 -8.437)"/>
      <path id="Path_412" data-name="Path 412" d="M61.223,13.6a3.191,3.191,0,1,1,6.353,0,3.192,3.192,0,1,1-6.353,0Zm4.985,0c0-1.46-.656-2.314-1.807-2.314S62.6,12.143,62.6,13.6s.65,2.319,1.805,2.319,1.807-.853,1.807-2.319Z" transform="translate(-23.012 -7.609)"/>
      <path id="Path_413" data-name="Path 413" d="M66.4,15.068c0-1.212.9-1.911,2.505-2.011l1.824-.105v-.581c0-.711-.47-1.113-1.379-1.113-.742,0-1.256.272-1.4.749H66.661c.136-1.157,1.224-1.9,2.752-1.9,1.689,0,2.641.841,2.641,2.263v4.6h-1.28v-.946h-.105a2.266,2.266,0,0,1-2.023,1.057A2.035,2.035,0,0,1,66.4,15.068Zm4.329-.576V13.93l-1.645.105c-.928.062-1.348.378-1.348.971s.526.959,1.249.959a1.588,1.588,0,0,0,1.744-1.472Z" transform="translate(-20.438 -7.609)"/>
      <path id="Path_414" data-name="Path 414" d="M71.348,14.431c0-2.128,1.094-3.476,2.8-3.476a2.22,2.22,0,0,1,2.065,1.182h.1v-3.7h1.329V17.8H76.364V16.737h-.105a2.338,2.338,0,0,1-2.115,1.175C72.431,17.912,71.348,16.564,71.348,14.431Zm1.373,0c0,1.429.673,2.288,1.8,2.288s1.813-.872,1.813-2.282-.7-2.288-1.813-2.288-1.8.865-1.8,2.282Z" transform="translate(-17.985 -8.437)"/>
      <path id="Path_415" data-name="Path 415" d="M79.235,13.6a3.191,3.191,0,1,1,6.352,0,3.191,3.191,0,1,1-6.352,0Zm4.985,0c0-1.46-.656-2.314-1.807-2.314s-1.805.854-1.805,2.314.65,2.319,1.805,2.319S84.22,15.068,84.22,13.6Z" transform="translate(-14.083 -7.609)"/>
      <path id="Path_416" data-name="Path 416" d="M84.669,10.24h1.28v1.07h.1a2.016,2.016,0,0,1,2.01-1.2,2.191,2.191,0,0,1,2.331,2.505v4.36H89.06V12.949c0-1.082-.47-1.621-1.453-1.621A1.545,1.545,0,0,0,86,13.035v3.94H84.669Z" transform="translate(-11.382 -7.611)"/>
      <path id="Path_417" data-name="Path 417" d="M94.311,9.074v1.708H95.77V11.9H94.311v3.463c0,.705.291,1.014.952,1.014a4.436,4.436,0,0,0,.507-.031v1.107a4.361,4.361,0,0,1-.723.068c-1.478,0-2.067-.52-2.067-1.819V11.9H91.911v-1.12H92.98V9.074Z" transform="translate(-7.792 -8.121)"/>
      <path id="Path_418" data-name="Path 418" d="M95.7,8.437h1.318v3.712h.105a2.072,2.072,0,0,1,2.054-1.206,2.219,2.219,0,0,1,2.32,2.511V17.8H100.17v-4.02c0-1.076-.5-1.621-1.44-1.621a1.573,1.573,0,0,0-1.7,1.708V17.8H95.7Z" transform="translate(-5.912 -8.437)"/>
      <path id="Path_419" data-name="Path 419" d="M106.769,15.155a2.734,2.734,0,0,1-2.918,1.949,3.059,3.059,0,0,1-3.111-3.476,3.106,3.106,0,0,1,3.105-3.519c1.874,0,3,1.28,3,3.4v.464h-4.756v.074a1.78,1.78,0,0,0,1.794,1.929,1.614,1.614,0,0,0,1.6-.817Zm-4.676-2.171h3.4a1.625,1.625,0,0,0-1.658-1.745,1.722,1.722,0,0,0-1.744,1.745Z" transform="translate(-3.43 -7.609)"/>
    </g>
  </g>
</svg>
