<svg xmlns="http://www.w3.org/2000/svg" width="60.459" height="60.459" viewBox="0 0 60.459 60.459">
  <g id="Group_66" data-name="Group 66" opacity="0.33" style="mix-blend-mode: overlay;isolation: isolate">
    <g id="Group_56" data-name="Group 56">
      <path id="Path_265" data-name="Path 265" d="M96.332,405.315H80.654v15.678H96.332Zm-14.928.75H95.582v14.178H81.4Z" transform="translate(-80.654 -405.315)" fill="#fff"/>
    </g>
    <g id="Group_57" data-name="Group 57" transform="translate(14.928 14.928)">
      <path id="Path_266" data-name="Path 266" d="M111.259,390.389H95.582v15.676h15.677Zm-14.927.75h14.177v14.176H96.332Z" transform="translate(-95.582 -390.389)" fill="#fff"/>
    </g>
    <g id="Group_58" data-name="Group 58" transform="translate(29.855 14.928)">
      <path id="Path_267" data-name="Path 267" d="M126.186,390.389H110.509v15.676h15.677Zm-14.927.75h14.177v14.176H111.259Z" transform="translate(-110.509 -390.389)" fill="#fff"/>
    </g>
    <g id="Group_59" data-name="Group 59" transform="translate(14.928 29.854)">
      <path id="Path_268" data-name="Path 268" d="M111.259,375.462H95.582v15.677h15.677Zm-14.927.75h14.177v14.177H96.332Z" transform="translate(-95.582 -375.462)" fill="#fff"/>
    </g>
    <g id="Group_60" data-name="Group 60" transform="translate(14.928)">
      <path id="Path_269" data-name="Path 269" d="M111.259,405.315H95.582v15.678h15.677Zm-14.927.75h14.177v14.178H96.332Z" transform="translate(-95.582 -405.315)" fill="#fff"/>
    </g>
    <g id="Group_61" data-name="Group 61" transform="translate(29.855)">
      <path id="Path_270" data-name="Path 270" d="M126.186,405.315H110.509v15.678h15.677Zm-14.927.75h14.177v14.178H111.259Z" transform="translate(-110.509 -405.315)" fill="#fff"/>
    </g>
    <g id="Group_62" data-name="Group 62" transform="translate(44.782)">
      <path id="Path_271" data-name="Path 271" d="M141.113,405.315H125.436v15.678h15.677Zm-14.927.75h14.177v14.178H126.186Z" transform="translate(-125.436 -405.315)" fill="#fff"/>
    </g>
    <g id="Group_63" data-name="Group 63" transform="translate(0 14.928)">
      <path id="Path_272" data-name="Path 272" d="M96.332,390.389H80.654v15.676H96.332Zm-14.928.75H95.582v14.176H81.4Z" transform="translate(-80.654 -390.389)" fill="#fff"/>
    </g>
    <g id="Group_64" data-name="Group 64" transform="translate(0 29.854)">
      <path id="Path_273" data-name="Path 273" d="M96.332,375.462H80.654v15.677H96.332Zm-14.928.75H95.582v14.177H81.4Z" transform="translate(-80.654 -375.462)" fill="#fff"/>
    </g>
    <g id="Group_65" data-name="Group 65" transform="translate(0 44.781)">
      <path id="Path_274" data-name="Path 274" d="M96.332,360.534H80.654v15.678H96.332Zm-14.928.75H95.582v14.178H81.4Z" transform="translate(-80.654 -360.534)" fill="#fff"/>
    </g>
  </g>
</svg>
