<svg xmlns="http://www.w3.org/2000/svg" width="77.473" height="77.472" viewBox="0 0 77.473 77.472">
  <g id="line-ball" transform="translate(-165.111 -31.848)">
    <path id="Path_248" data-name="Path 248" d="M229.124,41.379q-.48-.388-.971-.757L173.885,94.889q.371.489.758.971Z" transform="translate(-0.975 -0.975)" fill="#acc9e6"/>
    <path id="Path_249" data-name="Path 249" d="M215.045,33.589c-.451-.133-.9-.256-1.357-.372L166.481,80.424c.116.454.239.907.372,1.356Z" transform="translate(-0.152 -0.152)" fill="#acc9e6"/>
    <path id="Path_250" data-name="Path 250" d="M224.843,38.247q-.537-.333-1.084-.644L170.866,90.5q.313.547.645,1.084Z" transform="translate(-0.639 -0.639)" fill="#acc9e6"/>
    <path id="Path_251" data-name="Path 251" d="M220.166,35.629q-.6-.271-1.207-.521L168.372,85.7q.249.608.521,1.207Z" transform="translate(-0.362 -0.362)" fill="#acc9e6"/>
    <path id="Path_252" data-name="Path 252" d="M209.384,32.255c-.513-.074-1.027-.135-1.541-.188L165.33,74.578c.053.515.115,1.028.188,1.541Z" transform="translate(-0.024 -0.024)" fill="#acc9e6"/>
    <path id="Path_253" data-name="Path 253" d="M232.609,44.55c-.145-.145-.292-.285-.438-.427L177.386,98.908c.142.146.283.293.427.437s.292.285.438.427l54.785-54.785C232.893,44.841,232.753,44.694,232.609,44.55Z" transform="translate(-1.363 -1.363)" fill="#acc9e6"/>
    <path id="Path_254" data-name="Path 254" d="M203,31.848q-.907.019-1.811.082l-36,36q-.063.9-.083,1.811Z" transform="translate(0 0)" fill="#acc9e6"/>
    <path id="Path_255" data-name="Path 255" d="M166.165,62.175,195.438,32.9q-1.171.263-2.327.6L166.763,59.848Q166.427,61,166.165,62.175Z" transform="translate(-0.117 -0.117)" fill="#acc9e6"/>
    <path id="Path_256" data-name="Path 256" d="M247.448,78.189q.061-.905.082-1.811l-37.889,37.888q.907-.02,1.811-.082Z" transform="translate(-4.946 -4.946)" fill="#acc9e6"/>
    <path id="Path_257" data-name="Path 257" d="M246.541,70.765c-.053-.515-.115-1.028-.188-1.541l-43.865,43.865c.512.074,1.026.135,1.541.188Z" transform="translate(-4.152 -4.151)" fill="#acc9e6"/>
    <path id="Path_258" data-name="Path 258" d="M184.836,37.865a39.032,39.032,0,0,0-13.707,13.707Z" transform="translate(-0.668 -0.668)" fill="#acc9e6"/>
    <path id="Path_259" data-name="Path 259" d="M246.954,87.342q.336-1.156.6-2.327l-29.273,29.274q1.171-.264,2.327-.6Z" transform="translate(-5.905 -5.905)" fill="#acc9e6"/>
    <path id="Path_260" data-name="Path 260" d="M230.826,111.27a39.032,39.032,0,0,0,13.707-13.707Z" transform="translate(-7.299 -7.299)" fill="#acc9e6"/>
    <path id="Path_261" data-name="Path 261" d="M239.764,53.607q-.313-.545-.644-1.084l-53.333,53.333q.537.332,1.084.644Z" transform="translate(-2.297 -2.296)" fill="#acc9e6"/>
    <path id="Path_262" data-name="Path 262" d="M236.588,49.057q-.371-.491-.757-.972l-54.482,54.482q.48.388.971.757Z" transform="translate(-1.804 -1.803)" fill="#acc9e6"/>
    <path id="Path_263" data-name="Path 263" d="M244.826,64.355c-.116-.453-.239-.906-.372-1.356L196.263,111.19c.45.133.9.255,1.356.372Z" transform="translate(-3.46 -3.46)" fill="#acc9e6"/>
    <path id="Path_264" data-name="Path 264" d="M242.532,58.68q-.251-.607-.522-1.206l-51.273,51.272c.4.18.8.356,1.207.522Z" transform="translate(-2.846 -2.846)" fill="#acc9e6"/>
  </g>
</svg>
