<svg xmlns="http://www.w3.org/2000/svg" width="223.867" height="66.565" viewBox="0 0 223.867 66.565">
  <g id="Logo" transform="translate(-90.606 -228.331)">
    <g id="Group_45" data-name="Group 45" transform="translate(90.606 281.152)">
      <path id="Path_216" data-name="Path 216" d="M226.582,383.941v4.543h-.63v-9.559H227.8a2.522,2.522,0,1,1,.015,5.016Zm0-.573h1.262a1.888,1.888,0,0,0,2.092-1.934c0-1.19-.8-1.935-2.193-1.935h-1.16Z" transform="translate(-225.952 -378.036)" fill="#fff"/>
      <path id="Path_217" data-name="Path 217" d="M244.422,384.577H245v.759a1.381,1.381,0,0,1,1.29-.889,1.361,1.361,0,0,1,.617.144l-.287.516a.661.661,0,0,0-.43-.115c-1.175,0-1.19,1.562-1.19,2.293v3.139h-.573Z" transform="translate(-232.441 -379.977)" fill="#fff"/>
      <path id="Path_218" data-name="Path 218" d="M264.423,384.577H265v5.848h-.573v-1.046a2.671,2.671,0,0,1-2.279,1.2,2.867,2.867,0,0,1-2.852-3.081,2.811,2.811,0,0,1,2.852-3.053,2.67,2.67,0,0,1,2.279,1.147Zm-4.529,2.881a2.377,2.377,0,0,0,2.293,2.579,2.348,2.348,0,0,0,2.264-2.579,2.286,2.286,0,1,0-4.557,0Z" transform="translate(-237.666 -379.977)" fill="#fff"/>
      <path id="Path_219" data-name="Path 219" d="M286.373,384.577v5.676c0,2.207-1.1,3.468-2.938,3.468a2.633,2.633,0,0,1-2.866-2.508h.6a2.1,2.1,0,0,0,2.265,1.963c2.307,0,2.364-2.322,2.364-2.923v-.832a2.8,2.8,0,0,1-2.307,1.161,3.071,3.071,0,0,1,.071-6.134,2.642,2.642,0,0,1,2.236,1.147v-1.018Zm-5.159,2.953a2.306,2.306,0,0,0,2.264,2.508,2.363,2.363,0,0,0,2.35-2.565,2.316,2.316,0,0,0-2.322-2.479A2.342,2.342,0,0,0,281.214,387.53Z" transform="translate(-245.142 -379.977)" fill="#fff"/>
      <path id="Path_220" data-name="Path 220" d="M303.213,384.647v3.526a2.268,2.268,0,0,0,.372,1.462,1.664,1.664,0,0,0,2.322,0,2.269,2.269,0,0,0,.372-1.462v-3.526h.573v3.684a2.524,2.524,0,0,1-.444,1.605,2.288,2.288,0,0,1-3.325,0,2.524,2.524,0,0,1-.444-1.605v-3.684Z" transform="translate(-252.896 -380.047)" fill="#fff"/>
      <path id="Path_221" data-name="Path 221" d="M322.287,387.573a2.347,2.347,0,0,0,2.321,2.464,2.23,2.23,0,0,0,2.035-1.332l.487.286a3.531,3.531,0,1,1,.158-1.418Zm4.4-.545a2.2,2.2,0,0,0-2.165-2.035,2.235,2.235,0,0,0-2.192,2.035Z" transform="translate(-259.588 -379.977)" fill="#fff"/>
      <path id="Path_222" data-name="Path 222" d="M358.535,377.555V388h-.573V377.555Z" transform="translate(-272.333 -377.555)" fill="#fff"/>
      <path id="Path_223" data-name="Path 223" d="M372.543,384.647v3.526a2.269,2.269,0,0,0,.372,1.462,1.664,1.664,0,0,0,2.322,0,2.269,2.269,0,0,0,.372-1.462v-3.526h.573v3.684a2.524,2.524,0,0,1-.444,1.605,2.288,2.288,0,0,1-3.325,0,2.524,2.524,0,0,1-.444-1.605v-3.684Z" transform="translate(-277.255 -380.047)" fill="#fff"/>
      <path id="Path_224" data-name="Path 224" d="M392.54,387.428l-2.164-2.781h.7l1.849,2.408,1.82-2.408h.7l-2.121,2.781,2.351,3.067h-.7l-2.05-2.694-2.049,2.694h-.7Z" transform="translate(-283.651 -380.047)" fill="#fff"/>
      <path id="Path_225" data-name="Path 225" d="M410.721,384.647v3.526a2.269,2.269,0,0,0,.372,1.462,1.664,1.664,0,0,0,2.322,0,2.269,2.269,0,0,0,.372-1.462v-3.526h.573v3.684a2.521,2.521,0,0,1-.445,1.605,2.288,2.288,0,0,1-3.325,0,2.527,2.527,0,0,1-.444-1.605v-3.684Z" transform="translate(-290.669 -380.047)" fill="#fff"/>
      <path id="Path_226" data-name="Path 226" d="M429.767,384.577h.573v.759a1.381,1.381,0,0,1,1.29-.889,1.357,1.357,0,0,1,.616.144l-.286.516a.661.661,0,0,0-.43-.115c-1.175,0-1.19,1.562-1.19,2.293v3.139h-.573Z" transform="translate(-297.562 -379.977)" fill="#fff"/>
      <path id="Path_227" data-name="Path 227" d="M447.041,390.594l-2.78-5.947h.66l2.451,5.2,2.135-5.2h.659l-3.841,9.144h-.66Z" transform="translate(-302.654 -380.047)" fill="#fff"/>
      <path id="Path_228" data-name="Path 228" d="M482.331,385.653a1.07,1.07,0,0,0-1.018-.66.943.943,0,0,0-.989.932c0,.573.459.76,1.032.989a3.216,3.216,0,0,1,1.506.859,1.406,1.406,0,0,1,.3.946,1.785,1.785,0,0,1-1.906,1.863,2,2,0,0,1-2.021-1.548l.558-.172a1.493,1.493,0,0,0,1.462,1.175,1.254,1.254,0,0,0,1.3-1.29c0-.659-.416-.9-1.3-1.261a2.9,2.9,0,0,1-1.276-.775,1.227,1.227,0,0,1-.258-.759,1.484,1.484,0,0,1,1.562-1.506,1.576,1.576,0,0,1,1.533.946Z" transform="translate(-314.943 -379.977)" fill="#fff"/>
      <path id="Path_229" data-name="Path 229" d="M498.058,384.647v3.526a2.269,2.269,0,0,0,.372,1.462,1.663,1.663,0,0,0,2.321,0,2.265,2.265,0,0,0,.373-1.462v-3.526h.573v3.684a2.525,2.525,0,0,1-.445,1.605,2.288,2.288,0,0,1-3.325,0,2.527,2.527,0,0,1-.444-1.605v-3.684Z" transform="translate(-321.355 -380.047)" fill="#fff"/>
      <path id="Path_230" data-name="Path 230" d="M516.75,381.356a.516.516,0,1,1,.516.53A.509.509,0,0,1,516.75,381.356Zm.8,1.948v5.848h-.573V383.3Z" transform="translate(-328.123 -378.704)" fill="#fff"/>
      <path id="Path_231" data-name="Path 231" d="M531.4,384.059v5.3h-.573v-5.3h-.645v-.545h.645v-2.092h.573v2.092h1.017v.545Z" transform="translate(-332.843 -378.914)" fill="#fff"/>
      <path id="Path_232" data-name="Path 232" d="M545.367,387.573a2.347,2.347,0,0,0,2.321,2.464,2.231,2.231,0,0,0,2.036-1.332l.487.286a3.533,3.533,0,1,1,.158-1.418Zm4.4-.545a2.2,2.2,0,0,0-2.164-2.035,2.235,2.235,0,0,0-2.193,2.035Z" transform="translate(-337.966 -379.977)" fill="#fff"/>
      <path id="Path_233" data-name="Path 233" d="M568.121,385.653a1.069,1.069,0,0,0-1.018-.66.943.943,0,0,0-.989.932c0,.573.458.76,1.032.989a3.213,3.213,0,0,1,1.506.859,1.409,1.409,0,0,1,.3.946,1.785,1.785,0,0,1-1.906,1.863,2,2,0,0,1-2.021-1.548l.559-.172a1.492,1.492,0,0,0,1.462,1.175,1.254,1.254,0,0,0,1.3-1.29c0-.659-.416-.9-1.3-1.261a2.9,2.9,0,0,1-1.276-.775,1.226,1.226,0,0,1-.258-.759,1.484,1.484,0,0,1,1.562-1.506,1.575,1.575,0,0,1,1.533.946Z" transform="translate(-345.085 -379.977)" fill="#fff"/>
    </g>
    <g id="Group_46" data-name="Group 46" transform="translate(234.753 228.331)">
      <path id="Path_234" data-name="Path 234" d="M525.454,228.331H509.062a20.216,20.216,0,0,1,1.807,2.419h14.586Z" transform="translate(-509.062 -228.331)" fill="#fff"/>
      <path id="Path_235" data-name="Path 235" d="M533.114,265.057v-2.382h-9.83c.032.463.053.928.053,1.4,0,.33-.009.657-.025.983Z" transform="translate(-518.385 -250.844)" fill="#fff"/>
      <path id="Path_236" data-name="Path 236" d="M510.869,298.118a20.214,20.214,0,0,1-1.807,2.419h16.959v-2.419Z" transform="translate(-509.062 -274.078)" fill="#fff"/>
    </g>
    <path id="Path_237" data-name="Path 237" d="M687.679,230.75h-9.3v-2.419h21.394v2.419h-9.3v24.04h-2.8Z" transform="translate(-385.302 0)" fill="#fff"/>
    <g id="Group_47" data-name="Group 47" transform="translate(90.606 228.331)">
      <path id="Path_238" data-name="Path 238" d="M114.658,265.057v-2.382h-9.83c.032.463.054.928.054,1.4,0,.33-.009.657-.025.983Z" transform="translate(-99.929 -250.844)" fill="#fff"/>
      <path id="Path_239" data-name="Path 239" d="M92.413,298.118a20.215,20.215,0,0,1-1.807,2.419h16.959v-2.419Z" transform="translate(-90.606 -274.078)" fill="#fff"/>
      <path id="Path_240" data-name="Path 240" d="M107,228.331H90.606a20.218,20.218,0,0,1,1.807,2.419H107Z" transform="translate(-90.606 -228.331)" fill="#fff"/>
    </g>
    <path id="Path_241" data-name="Path 241" d="M609.616,235.526V249.8l-17.047-21.47h-2.305V254.79h2.8V233.32l17.01,21.469h2.306V235.526Z" transform="translate(-327.538 0)" fill="#fff"/>
    <rect id="Rectangle_136" data-name="Rectangle 136" width="223.074" height="0.689" transform="translate(91.101 269.799)" fill="#fff"/>
    <g id="Group_48" data-name="Group 48" transform="translate(118.353 228.491)">
      <path id="Path_242" data-name="Path 242" d="M198.469,228.795v26.3H195.8V234.055l-10.332,17.7h-1.315l-10.331-17.583v20.926h-2.668v-26.3h2.292l11.422,19.5,11.308-19.5Z" transform="translate(-171.155 -228.795)" fill="#fff"/>
      <path id="Path_243" data-name="Path 243" d="M306.815,237.812c0,5.6-4.058,8.979-10.745,8.979h-7.064v8.3h-2.78v-26.3h9.844C302.757,228.795,306.815,232.176,306.815,237.812Zm-2.78,0c0-4.208-2.78-6.613-8.04-6.613h-6.988v13.15h6.988C301.254,244.349,304.034,241.945,304.034,237.812Z" transform="translate(-246.587 -228.795)" fill="#fff"/>
      <path id="Path_244" data-name="Path 244" d="M374.355,228.795h2.78v26.3h-2.78Z" transform="translate(-304.358 -228.795)" fill="#fff"/>
      <path id="Path_245" data-name="Path 245" d="M436.159,255.094l-6.011-8.453a18.74,18.74,0,0,1-2.1.113H420.98v8.34H418.2v-26.3h9.844c6.687,0,10.745,3.381,10.745,9.017a8.152,8.152,0,0,1-6.011,8.265l6.424,9.017Zm-.151-17.282c0-4.208-2.78-6.613-8.04-6.613H420.98v13.188h6.988C433.228,244.387,436.008,241.945,436.008,237.812Z" transform="translate(-333.099 -228.795)" fill="#fff"/>
    </g>
  </g>
</svg>
