<svg xmlns="http://www.w3.org/2000/svg" xmlns:xlink="http://www.w3.org/1999/xlink" width="185" height="142.5" viewBox="0 0 185 142.5">
  <defs>
    <filter id="Ellipse_13" x="53.5" y="65.5" width="77" height="77" filterUnits="userSpaceOnUse">
      <feOffset dy="5" input="SourceAlpha"/>
      <feGaussianBlur stdDeviation="7.5" result="blur"/>
      <feFlood flood-color="#667c89" flood-opacity="0.361"/>
      <feComposite operator="in" in2="blur"/>
      <feComposite in="SourceGraphic"/>
    </filter>
    <filter id="Union_1" x="0" y="0" width="185" height="112" filterUnits="userSpaceOnUse">
      <feOffset dy="10" input="SourceAlpha"/>
      <feGaussianBlur stdDeviation="10" result="blur-2"/>
      <feFlood flood-opacity="0.161"/>
      <feComposite operator="in" in2="blur-2"/>
      <feComposite in="SourceGraphic"/>
    </filter>
  </defs>
  <g id="pin" transform="translate(30 -18.241)">
    <g id="Pin-2" data-name="Pin" transform="translate(12 67)">
      <g transform="matrix(1, 0, 0, 1, -42, -48.76)" filter="url(#Ellipse_13)">
        <circle id="Ellipse_13-2" data-name="Ellipse 13" cx="16" cy="16" r="16" transform="translate(76 83)" fill="#fff"/>
      </g>
      <circle id="Ellipse_12" data-name="Ellipse 12" cx="10" cy="10" r="10" transform="translate(40 40.241)" fill="#104877"/>
    </g>
    <g id="price" transform="translate(0 38)">
      <g transform="matrix(1, 0, 0, 1, -30, -19.76)" filter="url(#Union_1)">
        <path id="Union_1-2" data-name="Union 1" d="M54.059,45H3a3,3,0,0,1-3-3V3A3,3,0,0,1,3,0H122a3,3,0,0,1,3,3V42a3,3,0,0,1-3,3H70.942L62.5,52Z" transform="translate(30 20)" fill="#fff"/>
      </g>
    </g>
  </g>
</svg>
