<svg xmlns="http://www.w3.org/2000/svg" width="115.577" height="18.566" viewBox="0 0 115.577 18.566">
  <g id="waves" transform="translate(-590.001 -1439)">
    <path id="Path_277" data-name="Path 277" d="M457.087,60.509a11.382,11.382,0,0,0,14.07,0,9.173,9.173,0,0,1,11.124-.268l1.289-1.7a11.376,11.376,0,0,0-13.7.271,9.2,9.2,0,0,1-11.494,0,11.389,11.389,0,0,0-14.07,0,9.2,9.2,0,0,1-11.494,0,11.369,11.369,0,0,0-13.7-.269l1.289,1.7a9.171,9.171,0,0,1,11.124.269,11.389,11.389,0,0,0,14.07,0,9.2,9.2,0,0,1,11.494,0Z" transform="translate(170.891 1394.623)" fill="#dee9f5"/>
    <path id="Path_278" data-name="Path 278" d="M520.985,58.811a9.2,9.2,0,0,1-11.493,0c-.122-.092-.248-.173-.372-.26l.007-.01c-.1-.068-.2-.126-.294-.19s-.192-.127-.289-.188c-.173-.108-.349-.21-.526-.309-.106-.059-.211-.117-.318-.173-.171-.089-.344-.171-.518-.251-.115-.053-.23-.106-.347-.155-.167-.07-.336-.134-.506-.2-.124-.046-.248-.092-.374-.133-.163-.053-.327-.1-.492-.146-.134-.037-.268-.075-.4-.108-.157-.037-.315-.068-.473-.1s-.286-.057-.429-.079-.3-.039-.456-.056-.3-.036-.451-.047-.292-.013-.437-.018-.315-.011-.473-.01c-.137,0-.274.011-.412.018-.166.007-.332.014-.5.029-.127.012-.254.031-.38.047-.175.023-.35.043-.524.074-.116.02-.232.049-.349.073-.182.038-.364.074-.545.122-.1.027-.206.061-.309.092-.193.056-.385.11-.576.177-.082.029-.163.064-.245.1-.209.079-.418.157-.624.248-.048.021-.094.047-.141.069a12.29,12.29,0,0,0-2.318,1.385,9.2,9.2,0,0,1-11.49,0c-.121-.092-.247-.172-.37-.259l.008-.011c-.108-.076-.219-.141-.329-.213-.076-.05-.152-.1-.229-.149-.193-.121-.388-.235-.585-.344l-.058-.034-.051-.029c-.051-.028-.1-.053-.154-.079-.183-.1-.367-.184-.552-.269-.049-.022-.1-.048-.147-.07s-.113-.047-.17-.071q-.254-.107-.51-.2c-.064-.024-.127-.051-.192-.074s-.121-.039-.182-.059c-.154-.051-.31-.1-.465-.14-.08-.023-.16-.049-.24-.07l-.193-.046c-.139-.034-.279-.062-.419-.09-.1-.019-.19-.041-.285-.058l-.2-.032c-.124-.019-.248-.034-.373-.048s-.221-.03-.332-.04c-.069-.006-.137-.011-.206-.015-.109-.008-.219-.012-.329-.016-.125-.006-.25-.012-.375-.013h-.209c-.1,0-.189.007-.284.01-.14.005-.279.009-.418.02l-.21.017c-.08.008-.16.019-.24.028-.153.018-.306.036-.458.059l-.208.035c-.067.012-.133.027-.2.04-.165.033-.33.066-.5.106-.067.016-.135.032-.2.05s-.107.032-.161.047c-.176.049-.352.1-.526.157l-.2.067c-.042.014-.083.033-.125.048-.186.068-.37.138-.554.215-.1.044-.205.091-.308.138-.185.085-.369.173-.552.267-.1.052-.2.106-.294.16-.182.1-.364.207-.543.32-.1.059-.189.121-.282.183s-.2.123-.3.192l.007.01c-.124.087-.25.167-.372.26a9.191,9.191,0,0,1-11.487,0,12.289,12.289,0,0,0-2.388-1.419l-.068-.033c-.212-.094-.428-.175-.643-.255-.077-.029-.153-.063-.23-.09-.185-.064-.372-.117-.558-.172-.111-.032-.22-.069-.331-.1-.167-.044-.335-.077-.5-.112-.133-.028-.265-.06-.4-.084-.152-.026-.3-.044-.456-.064s-.3-.042-.454-.056-.277-.018-.416-.025c-.166-.009-.331-.019-.5-.02-.129,0-.257,0-.385.008-.177,0-.353.009-.529.022-.12.009-.238.024-.358.036-.185.02-.369.04-.554.069-.11.018-.22.04-.329.061-.193.036-.386.074-.577.121-.1.024-.2.053-.3.081-.2.054-.4.111-.592.176-.094.031-.187.066-.28.1-.2.072-.4.148-.6.233-.087.037-.174.077-.26.116-.2.092-.4.188-.6.292-.081.042-.161.087-.241.131-.2.112-.4.229-.6.353-.076.047-.15.1-.225.146-.11.072-.222.138-.33.214l.008.011c-.123.087-.249.167-.37.259a9.2,9.2,0,0,1-11.494,0,11.369,11.369,0,0,0-13.7-.269l1.289,1.7a9.171,9.171,0,0,1,11.124.269,11.389,11.389,0,0,0,14.07,0c.2-.15.4-.289.6-.423.051-.034.1-.066.155-.1q.258-.164.521-.309l.176-.095q.255-.134.515-.252c.064-.029.129-.059.2-.087q.252-.108.506-.2c.072-.026.143-.052.215-.076.164-.055.329-.1.494-.15.079-.021.158-.043.237-.063.158-.039.317-.071.477-.1.087-.017.174-.034.261-.048.151-.024.3-.042.452-.058.1-.01.194-.022.29-.028.142-.011.284-.015.425-.019.106,0,.212-.006.317-.005.132,0,.263.009.395.017.116.006.232.011.347.022s.237.029.355.045.256.033.383.056c.1.019.2.043.3.065.143.031.286.061.429.1.079.021.158.048.237.072.162.048.325.1.486.154.049.017.1.038.145.057a10.164,10.164,0,0,1,2.566,1.426,12.115,12.115,0,0,0,3.135,1.721c.083.031.165.068.249.1.133.045.267.08.4.12.169.052.336.107.506.151.051.013.1.02.153.032a11.119,11.119,0,0,0,2.6.313,11.586,11.586,0,0,0,7.035-2.435q.307-.232.623-.438l.066-.042q.289-.186.584-.349l.107-.058q.276-.148.556-.277l0,0,.144-.064c.144-.063.289-.12.434-.176l.126-.05c.052-.018.1-.037.156-.054.12-.042.242-.079.363-.115.065-.02.129-.041.194-.059l.169-.045c.1-.027.21-.05.316-.073.077-.017.155-.035.232-.049s.125-.024.187-.034c.093-.016.186-.029.279-.041s.169-.023.254-.033l.208-.02c.082-.007.165-.011.248-.016s.177-.009.266-.012l.228,0c.074,0,.147,0,.22,0,.091,0,.182.007.272.012s.167.009.251.016c.065.006.13.012.2.02.089.009.178.021.267.033s.186.026.278.041l.173.032c.084.016.167.035.251.054.1.023.209.045.312.071l.151.041c.075.021.15.045.226.068.117.036.235.071.353.111l.127.046c.062.022.124.049.185.073.136.052.272.1.407.164l.106.048c.037.016.072.036.109.053.165.078.329.157.491.245l.08.044q.309.169.61.364l.041.026c.214.14.426.288.634.446a12.307,12.307,0,0,0,2.251,1.352c.084.04.167.085.252.122.127.056.257.1.386.152.167.066.334.137.5.2.065.022.13.038.195.059a11.178,11.178,0,0,0,3.452.554,11.586,11.586,0,0,0,7.035-2.435,10.68,10.68,0,0,1,1.252-.817c.024-.013.047-.028.07-.041.156-.085.315-.16.473-.236.075-.036.15-.076.226-.11.136-.062.274-.113.411-.167.1-.04.2-.083.3-.118.126-.045.252-.081.378-.12s.228-.073.343-.1.238-.056.357-.082.247-.058.371-.08.229-.034.343-.05c.13-.018.26-.037.39-.05.11-.01.221-.014.331-.021.135-.008.271-.016.406-.017.106,0,.212,0,.318.005.14,0,.28.008.419.018.1.008.2.02.306.031.144.015.287.032.431.054.1.016.195.035.293.054.146.028.292.058.438.094.094.022.187.049.281.074.149.042.3.086.446.135.088.03.176.061.264.094.152.056.3.115.455.179.082.035.163.072.245.109.155.071.309.146.462.227.076.039.152.08.227.122.157.088.313.18.468.278.069.043.138.086.206.131.2.13.39.263.58.408a11.383,11.383,0,0,0,14.071,0A9.173,9.173,0,0,1,533.4,60.24l1.289-1.7A11.377,11.377,0,0,0,520.985,58.811Z" transform="translate(170.891 1382.623)" fill="#acc9e6"/>
  </g>
</svg>
