<svg id="acUnit" xmlns="http://www.w3.org/2000/svg" width="32.374" height="28.599" viewBox="0 0 32.374 28.599">
  <path id="Shape" d="M10.54,5.757a.54.54,0,0,0,.54-.54V2.158a1.079,1.079,0,0,1,1.079-1.079h1.619V3.237A2.158,2.158,0,0,0,15.935,5.4H31.043A2.158,2.158,0,0,0,33.2,3.237V1.079H34.82A1.079,1.079,0,0,1,35.9,2.158v9.173A1.079,1.079,0,0,1,34.82,12.41h-1.7a2.158,2.158,0,0,0-2.082-1.619H22.766a.54.54,0,0,0,0,1.079h8.277a1.079,1.079,0,0,1,1.079,1.079v1.079H23.478a.54.54,0,0,0,0,1.079h8.644A1.079,1.079,0,0,0,33.2,14.029v-.54H34.82a2.158,2.158,0,0,0,2.158-2.158V2.158A2.158,2.158,0,0,0,34.82,0H12.158A2.158,2.158,0,0,0,10,2.158V5.218A.54.54,0,0,0,10.54,5.757ZM32.122,1.079V3.237a1.079,1.079,0,0,1-1.079,1.079H15.935a1.079,1.079,0,0,1-1.079-1.079V1.079Z" transform="translate(-4.604)" fill="#104877"/>
  <path id="Shape-2" data-name="Shape" d="M51.54,13.079h1.619a.54.54,0,1,0,0-1.079H51.54a.54.54,0,0,0,0,1.079Z" transform="translate(-23.482 -5.525)" fill="#104877"/>
  <path id="Shape-3" data-name="Shape" d="M51.54,17.079h1.619a.54.54,0,1,0,0-1.079H51.54a.54.54,0,0,0,0,1.079Z" transform="translate(-23.482 -7.367)" fill="#104877"/>
  <path id="Shape-4" data-name="Shape" d="M42.079,39.094V31.54a.54.54,0,0,0-1.079,0v7.554a.54.54,0,0,0,1.079,0Z" transform="translate(-18.878 -14.273)" fill="#104877"/>
  <path id="Shape-5" data-name="Shape" d="M0,20.633A8.633,8.633,0,1,0,8.633,12,8.633,8.633,0,0,0,0,20.633Zm8.633-7.554a7.554,7.554,0,1,1-7.554,7.554A7.554,7.554,0,0,1,8.633,13.079Z" transform="translate(0 -5.525)" fill="#104877"/>
  <path id="Shape-6" data-name="Shape" d="M6.006,22.458a.54.54,0,0,0,.521.4.525.525,0,0,0,.14-.019l1.742-.467L10.3,23.467,8.41,24.56l-1.742-.467a.54.54,0,1,0-.279,1.042l1.437.385L7.44,26.959a.54.54,0,0,0,.383.663.525.525,0,0,0,.14.019.54.54,0,0,0,.521-.4L8.95,25.5l1.894-1.1v2.188L9.569,27.865a.54.54,0,1,0,.763.763l1.052-1.052,1.052,1.052a.54.54,0,1,0,.763-.763l-1.276-1.276V24.4l1.895,1.094.467,1.743a.54.54,0,0,0,.521.4.526.526,0,0,0,.14-.019.54.54,0,0,0,.381-.66l-.383-1.438,1.437-.385a.54.54,0,1,0-.279-1.042l-1.742.467-1.9-1.094,1.895-1.094,1.742.467a.525.525,0,0,0,.14.019.54.54,0,0,0,.14-1.061l-1.435-.385.385-1.438a.54.54,0,0,0-1.042-.279l-.467,1.743-1.9,1.094V20.344L13.2,19.069a.54.54,0,0,0-.763-.763l-1.052,1.052-1.052-1.052a.54.54,0,0,0-.763.763l1.276,1.276v2.188L8.949,21.438,8.482,19.7a.54.54,0,0,0-1.042.279l.383,1.438L6.385,21.8a.54.54,0,0,0-.379.66Z" transform="translate(-2.751 -8.359)" fill="#104877"/>
  <path id="Shape-7" data-name="Shape" d="M30.481,39.148a.54.54,0,0,0-.762-.042,2.158,2.158,0,1,0,3.6,1.607V31.54a.54.54,0,1,0-1.079,0v9.173a1.079,1.079,0,1,1-1.8-.8A.54.54,0,0,0,30.481,39.148Z" transform="translate(-13.352 -14.273)" fill="#104877"/>
  <path id="Shape-8" data-name="Shape" d="M47.54,31a.54.54,0,0,0-.54.54v9.173A2.158,2.158,0,1,0,50.6,39.1a.54.54,0,0,0-.72.8,1.079,1.079,0,1,1-1.8.8V31.54a.54.54,0,0,0-.54-.54Z" transform="translate(-21.64 -14.273)" fill="#104877"/>
</svg>
