<svg xmlns="http://www.w3.org/2000/svg" width="60" height="60" viewBox="0 0 60 60">
  <g id="bedIcon" transform="translate(-513 -1221)">
    <rect id="Rectangle_35" data-name="Rectangle 35" width="60" height="60" rx="30" transform="translate(513 1221)" fill="rgba(16,72,119,0.08)"/>
    <g id="bed" transform="translate(527 1167.194)">
      <g id="Group_10" data-name="Group 10" transform="translate(0 72.806)">
        <path id="Path_59" data-name="Path 59" d="M29.031,82.781V75.655a2.852,2.852,0,0,0-2.849-2.849H5.818a2.852,2.852,0,0,0-2.849,2.849v7.126A4.054,4.054,0,0,0,0,86.682V92.1a.95.95,0,0,0,.95.95H2.969v1.709a.95.95,0,0,0,1.9,0V93.046H27.131v1.709a.95.95,0,0,0,1.9,0V93.046H31.05A.95.95,0,0,0,32,92.1V86.682A4.054,4.054,0,0,0,29.031,82.781ZM4.869,75.655a.95.95,0,0,1,.949-.949H26.182a.95.95,0,0,1,.949.949v6.979H24.905V80.727A3.011,3.011,0,0,0,21.9,77.72H18.057A3,3,0,0,0,16,78.537a3,3,0,0,0-2.057-.817H10.1a3.011,3.011,0,0,0-3.007,3.007v1.907H4.869Zm18.136,5.072v1.907H16.95V80.727a1.108,1.108,0,0,1,1.107-1.107H21.9A1.108,1.108,0,0,1,23.005,80.727Zm-7.955,0v1.907H8.995V80.727A1.108,1.108,0,0,1,10.1,79.62h3.841A1.108,1.108,0,0,1,15.05,80.727ZM30.1,91.146H1.9V86.682a2.15,2.15,0,0,1,2.147-2.147H27.953A2.15,2.15,0,0,1,30.1,86.682v4.465Z" transform="translate(0 -72.806)" fill="#104877"/>
      </g>
    </g>
  </g>
</svg>
