<svg xmlns="http://www.w3.org/2000/svg" width="32.436" height="30.092" viewBox="0 0 32.436 30.092">
  <g id="essentials" transform="translate(0 -18.5)">
    <path id="Path_317" data-name="Path 317" d="M32.436,21.149a2.648,2.648,0,1,0-3.282,2.57v3.007a2.932,2.932,0,0,1-1.591,2.605A3.764,3.764,0,0,0,23.9,26.408H18.311a.634.634,0,1,0,0,1.267H21.09a3.741,3.741,0,0,0-.947,2.49v9.6a3.353,3.353,0,0,1-2.407-.143h0a4.612,4.612,0,0,0-3.831,0h0a3.349,3.349,0,0,1-2.777,0h0a4.616,4.616,0,0,0-3.832,0h0a3.255,3.255,0,0,1-.753.241v-9.7a2.492,2.492,0,0,1,2.489-2.49h3.6a.634.634,0,1,0,0-1.267h-3.6a3.762,3.762,0,0,0-3.7,3.108,2.951,2.951,0,0,1-2.044-2.791V23.718a2.648,2.648,0,1,0-1.267,0v3.007a4.227,4.227,0,0,0,3.254,4.088V47.958a.634.634,0,0,0,.634.634H20.777a.634.634,0,0,0,.634-.634V45.988h5.614a.634.634,0,0,0,.634-.634V30.67a4.2,4.2,0,0,0,2.764-3.945V23.718A2.651,2.651,0,0,0,32.436,21.149Zm-31.169,0a1.38,1.38,0,1,1,1.381,1.38,1.383,1.383,0,0,1-1.381-1.38ZM20.143,47.325H6.536V44.907a4.538,4.538,0,0,0,1.279-.372h0a3.35,3.35,0,0,1,2.78,0h0a4.6,4.6,0,0,0,3.832,0h0a3.345,3.345,0,0,1,2.777,0h0a4.6,4.6,0,0,0,2.934.3v2.488Zm0-3.8a3.331,3.331,0,0,1-2.407-.143h0a4.612,4.612,0,0,0-3.831,0h0a3.331,3.331,0,0,1-2.777,0h0a4.616,4.616,0,0,0-3.832,0h0a3.28,3.28,0,0,1-.753.242V41.146a4.517,4.517,0,0,0,1.279-.371h0a3.35,3.35,0,0,1,2.78,0h0a4.616,4.616,0,0,0,3.832,0h0a3.345,3.345,0,0,1,2.777,0h0a4.552,4.552,0,0,0,1.915.416,4.613,4.613,0,0,0,1.019-.113v2.447ZM23.9,27.675a2.5,2.5,0,0,1,2.438,1.977l-.112,0H21.463a2.494,2.494,0,0,1,2.437-1.98ZM26.39,44.721H21.41v-13.8h4.815c.055,0,.111,0,.166,0Zm3.4-22.192a1.381,1.381,0,1,1,1.381-1.38A1.382,1.382,0,0,1,29.788,22.529Z" transform="translate(0)" fill="#104877"/>
    <path id="Path_318" data-name="Path 318" d="M234.687,144.511a.591.591,0,1,0,0-1.183h0a.591.591,0,0,0,0,1.183Z" transform="translate(-219.224 -116.897)" fill="#104877"/>
  </g>
</svg>
