<svg id="expandIcon" xmlns="http://www.w3.org/2000/svg" width="28.192" height="28.192" viewBox="0 0 28.192 28.192">
  <path id="Path_177" data-name="Path 177" d="M0,1.007V8.055H2.014V2.014H8.055V0H1.007A1.006,1.006,0,0,0,0,1.007Z" fill="#075471"/>
  <path id="Path_178" data-name="Path 178" d="M372.762,0h-7.048V2.014h6.041V8.055h2.014V1.007A1.006,1.006,0,0,0,372.762,0Z" transform="translate(-345.577)" fill="#075471"/>
  <path id="Path_179" data-name="Path 179" d="M371.755,371.755h-6.041v2.014h7.048a1.006,1.006,0,0,0,1.007-1.007v-7.048h-2.014Z" transform="translate(-345.577 -345.577)" fill="#075471"/>
  <path id="Path_180" data-name="Path 180" d="M2.014,365.714H0v7.048a1.006,1.006,0,0,0,1.007,1.007H8.055v-2.014H2.014Z" transform="translate(0 -345.577)" fill="#075471"/>
</svg>
