<svg id="instagramIcon" xmlns="http://www.w3.org/2000/svg" width="29.399" height="29.399" viewBox="0 0 29.399 29.399">
  <circle id="Oval" cx="1.764" cy="1.764" r="1.764" transform="translate(20.551 5.388)" fill="#075471"/>
  <path id="Shape" d="M7.35,14.7A7.351,7.351,0,1,1,14.7,7.349,7.359,7.359,0,0,1,7.35,14.7Zm0-11.027a3.675,3.675,0,1,0,3.675,3.675A3.679,3.679,0,0,0,7.35,3.674Z" transform="translate(7.351 7.349)" fill="#075471"/>
  <path id="Shape-2" data-name="Shape" d="M22.048,29.4H7.349A7.743,7.743,0,0,1,0,22.048V7.351A7.743,7.743,0,0,1,7.349,0h14.7A7.744,7.744,0,0,1,29.4,7.351v14.7A7.744,7.744,0,0,1,22.048,29.4ZM7.349,3.674A4.163,4.163,0,0,0,3.675,7.351v14.7a4.1,4.1,0,0,0,3.674,3.678h14.7a4.163,4.163,0,0,0,3.674-3.678V7.351a4.163,4.163,0,0,0-3.674-3.678Z" transform="translate(0 0)" fill="#075471"/>
</svg>
