<svg id="twitterIcon" xmlns="http://www.w3.org/2000/svg" width="29.399" height="23.887" viewBox="0 0 29.399 23.887">
  <path id="Shape" d="M29.4,2.756a10.874,10.874,0,0,1-3.491.919A5.2,5.2,0,0,0,28.481.367a12.055,12.055,0,0,1-3.859,1.47A6.416,6.416,0,0,0,20.212,0a6.083,6.083,0,0,0-5.88,6.064,2.725,2.725,0,0,0,.184,1.286A16.908,16.908,0,0,1,2.021,1.1a5.631,5.631,0,0,0-.735,3.124A6.03,6.03,0,0,0,4.042,9.187a7.7,7.7,0,0,1-2.756-.735h0a5.931,5.931,0,0,0,4.777,5.88,5.087,5.087,0,0,1-1.654.184,2.331,2.331,0,0,1-1.1-.184A5.954,5.954,0,0,0,9,18.558,11.684,11.684,0,0,1,1.47,21.131H0a17.928,17.928,0,0,0,9.187,2.756c11.025,0,17.088-9.187,17.088-17.088V6.064A10.682,10.682,0,0,0,29.4,2.756Z" transform="translate(0 0)" fill="#075471"/>
</svg>
