<svg id="whatsapp_Icon" data-name="whatsapp Icon" xmlns="http://www.w3.org/2000/svg" width="29.399" height="29.639" viewBox="0 0 29.399 29.639">
  <path id="Path_201" data-name="Path 201" d="M15.671.017A14.706,14.706,0,0,0,3.29,21.376L1.729,28.951a.572.572,0,0,0,.692.672l7.423-1.759A14.7,14.7,0,1,0,15.671.017Zm8.857,22.821A11.517,11.517,0,0,1,11.267,25.01l-1.034-.515L5.682,25.573l.958-4.65-.509-1A11.52,11.52,0,0,1,8.251,6.561,11.51,11.51,0,1,1,24.529,22.839Z" transform="translate(-1.69 0)" fill="#075471"/>
  <path id="Path_202" data-name="Path 202" d="M119.121,117.691l-2.847-.818a1.061,1.061,0,0,0-1.05.277l-.7.709a1.037,1.037,0,0,1-1.128.238,15.2,15.2,0,0,1-4.9-4.324,1.037,1.037,0,0,1,.082-1.15l.608-.786a1.061,1.061,0,0,0,.131-1.078l-1.2-2.709a1.062,1.062,0,0,0-1.658-.38,4.789,4.789,0,0,0-1.852,2.825c-.2,1.995.653,4.51,3.889,7.529,3.738,3.489,6.731,3.949,8.68,3.477a4.789,4.789,0,0,0,2.546-2.22A1.062,1.062,0,0,0,119.121,117.691Z" transform="translate(-97.287 -99.803)" fill="#075471"/>
</svg>
