<svg xmlns="http://www.w3.org/2000/svg" width="30" height="24.724" viewBox="0 0 30 24.724">
  <g id="wifi" transform="translate(0 -45.5)">
    <g id="Group_80" data-name="Group 80" transform="translate(13.013 66.251)">
      <g id="Group_79" data-name="Group 79" transform="translate(0 0)">
        <circle id="Ellipse_33" data-name="Ellipse 33" cx="1.986" cy="1.986" r="1.986" fill="#104877"/>
      </g>
    </g>
    <g id="Group_82" data-name="Group 82" transform="translate(0 45.5)">
      <g id="Group_81" data-name="Group 81" transform="translate(0 0)">
        <path id="Path_314" data-name="Path 314" d="M29.686,51.908a20.031,20.031,0,0,0-29.371,0,1.172,1.172,0,1,0,1.715,1.6,17.688,17.688,0,0,1,25.942,0,1.172,1.172,0,1,0,1.715-1.6Z" transform="translate(0 -45.5)" fill="#104877"/>
      </g>
    </g>
    <g id="Group_84" data-name="Group 84" transform="translate(4.278 52.3)">
      <g id="Group_83" data-name="Group 83" transform="translate(0 0)">
        <path id="Path_315" data-name="Path 315" d="M94.1,165.995a14.342,14.342,0,0,0-20.765,0A1.172,1.172,0,1,0,75,167.646a12,12,0,0,1,17.438,0,1.172,1.172,0,0,0,1.664-1.651Z" transform="translate(-72.998 -161.547)" fill="#104877"/>
      </g>
    </g>
    <g id="Group_86" data-name="Group 86" transform="translate(8.852 59.152)">
      <g id="Group_85" data-name="Group 85">
        <path id="Path_316" data-name="Path 316" d="M162.916,280.949a8.456,8.456,0,0,0-5.7-2.449h-.086a8.456,8.456,0,0,0-5.7,2.449,1.172,1.172,0,0,0,1.65,1.665,6.119,6.119,0,0,1,4.054-1.77h.086a6.119,6.119,0,0,1,4.054,1.77,1.172,1.172,0,0,0,1.65-1.665Z" transform="translate(-151.076 -278.5)" fill="#104877"/>
      </g>
    </g>
  </g>
</svg>
